# xmcd
#
# Track frame offsets: 
#        150
#        16588
#        33706
#        53436
#        65836
#        78571
#        91175
#        107458
#        125912
#        150692
#        165530
#        181367
#        195926
#        215944
#        238824
#        250435
#        260324
#
# Disc length: 3661 seconds
#
# Revision: 0
# Processed by: cddbd v1.5.1PL0 Copyright (c) Steve Scherf et al.
# Submitted via: ExactAudioCopy v0.95a4
#
DISCID=e70e4b11
DTITLE=Myslowitz - Z rozmyslan przy sniadaniu
DYEAR=1997
DGENRE=Pop
TTITLE0=Zwykly dzien
TTITLE1=Scenariusz dla moich sasiadow
TTITLE2=Przebudzenie
TTITLE3=Uciekinier
TTITLE4=Aniol
TTITLE5=Margaret
TTITLE6=Filmowa milosc
TTITLE7=Z rozmyslan przy sniadaniu
TTITLE8=Przemijanie
TTITLE9=Dwie mysli
TTITLE10=Zawod fotograf
TTITLE11=Glosy
TTITLE12=Do utraty tchu
TTITLE13=Myszy i ludzie
TTITLE14=Fabryczne
TTITLE15=Wielki blekit
TTITLE16=James radioglowi
EXTD=
EXTT0=
EXTT1=
EXTT2=
EXTT3=
EXTT4=
EXTT5=
EXTT6=
EXTT7=
EXTT8=
EXTT9=
EXTT10=
EXTT11=
EXTT12=
EXTT13=
EXTT14=
EXTT15=
EXTT16=
PLAYORDER=
